<svg width="47" height="47" viewBox="0 0 47 47" fill="none" xmlns="http://www.w3.org/2000/svg">
<rect x="0.5" y="0.5" width="46" height="46" rx="23" fill="#FAFBFD"/>
<rect x="0.5" y="0.5" width="46" height="46" rx="23" stroke="#DFE3E8"/>
<path d="M23.4972 28.1576C21.2577 28.1576 19.3896 26.5689 18.9461 24.4582H11.4957C12.0224 30.596 17.1611 35.4119 23.4196 35.4119C29.6782 35.4119 34.8225 30.596 35.3435 24.4582H28.0484C27.6049 26.5745 25.7368 28.1576 23.4972 28.1576Z" fill="white"/>
<path d="M26.1581 35.1008C31.125 33.9344 34.9001 29.674 35.3435 24.4582H32.4055C32.1117 29.1907 29.6338 33.2012 26.1581 35.1008Z" fill="#DFDFDF"/>
<path d="M26.2412 23.4972C26.2357 23.4972 26.2357 23.4972 26.2412 23.4972C26.2357 23.1584 26.1747 22.8362 26.0638 22.5363C25.6758 21.492 24.6724 20.7532 23.4972 20.7532C22.322 20.7532 21.3187 21.4976 20.9306 22.5363C20.8198 22.8362 20.7588 23.1584 20.7588 23.4972H20.7643C20.7643 23.836 20.8253 24.1582 20.9362 24.4582C21.3242 25.5024 22.3276 26.2412 23.5028 26.2412C24.678 26.2412 25.6813 25.4969 26.0694 24.4582C26.1803 24.1638 26.2412 23.836 26.2412 23.4972Z" fill="white"/>
<path d="M23.5028 18.8425C25.7423 18.8425 27.6105 20.4311 28.0539 22.5418H35.5043C34.9777 16.3984 29.8389 11.5826 23.5748 11.5826C17.3108 11.5826 12.1776 16.3984 11.6509 22.5363H18.9516C19.3951 20.4255 21.2632 18.8425 23.5028 18.8425Z" fill="#FF1C1C"/>
<path d="M32.4055 22.5363H35.4987C35.0442 17.2316 31.1416 12.9101 26.0472 11.8381C29.5839 13.71 32.1062 17.7593 32.4055 22.5363Z" fill="#DF1818"/>
<path d="M23.5748 11.5826C29.8389 11.5826 34.9777 16.3984 35.4987 22.5363H28.0484C27.6049 20.4255 25.7368 18.8369 23.4972 18.8369C21.2577 18.8369 19.3896 20.4255 18.9461 22.5363H11.6509C12.1776 16.3984 17.3163 11.5826 23.5748 11.5826ZM26.0638 22.5363C26.1747 22.8362 26.2357 23.1584 26.2357 23.4972H26.2412C26.2412 23.8361 26.1802 24.1582 26.0694 24.4582C25.6813 25.5025 24.678 26.2412 23.5028 26.2412C22.3276 26.2412 21.3242 25.4969 20.9362 24.4582C20.8253 24.1582 20.7643 23.8361 20.7643 23.4972H20.7588C20.7588 23.1584 20.8198 22.8362 20.9306 22.5363C21.3187 21.492 22.322 20.7533 23.4972 20.7533C24.6724 20.7533 25.6758 21.4976 26.0638 22.5363ZM23.4196 35.4175C17.1556 35.4175 12.0168 30.6016 11.4957 24.4637H18.9461C19.3896 26.5745 21.2577 28.1631 23.4972 28.1631C25.7368 28.1631 27.6049 26.5745 28.0484 24.4637H35.3491C34.8224 30.596 29.6837 35.4175 23.4196 35.4175ZM23.4972 9.29407C15.6699 9.29407 9.32269 15.6541 9.32269 23.4972C9.32269 31.3404 15.6699 37.7004 23.4972 37.7004C31.3245 37.7004 37.6773 31.3459 37.6773 23.4972C37.6773 15.6486 31.3301 9.29407 23.4972 9.29407Z" fill="black"/>
</svg>
