<svg width="163" height="163" viewBox="0 0 163 163" fill="none" xmlns="http://www.w3.org/2000/svg">
<circle cx="81.5" cy="81.5" r="81.5" fill="#F5F5F5"/>
<path d="M87.4041 98.0307H73.8447C73.8447 94.8422 74.0615 92.0657 74.4951 89.7013C74.9621 87.301 75.7293 85.1514 76.7967 83.2527C77.8641 81.3181 79.2985 79.4731 81.0997 77.7177C82.6675 76.2488 84.0351 74.8696 85.2026 73.5798C86.3701 72.2543 87.2707 70.8929 87.9044 69.4957C88.5382 68.0986 88.8551 66.576 88.8551 64.928C88.8551 62.9576 88.5716 61.3455 88.0045 60.0916C87.4708 58.8019 86.6703 57.8346 85.6028 57.1897C84.5688 56.509 83.2679 56.1687 81.7001 56.1687C80.3992 56.1687 79.1817 56.4911 78.0476 57.136C76.9135 57.745 75.9962 58.7123 75.2957 60.0378C74.5952 61.3634 74.2116 63.1009 74.1449 65.2504H58.434C58.534 60.1274 59.6181 55.9358 61.6862 52.6757C63.7543 49.3798 66.5229 46.9616 69.992 45.4211C73.4944 43.8448 77.3971 43.0566 81.7001 43.0566C86.4701 43.0566 90.5563 43.8627 93.9587 45.4748C97.3944 47.087 100.013 49.4694 101.814 52.622C103.649 55.7746 104.566 59.6259 104.566 64.1757C104.566 67.2925 104.016 70.0331 102.915 72.3976C101.814 74.7263 100.346 76.9116 98.5118 78.9536C96.6772 80.9599 94.6425 83.0557 92.4076 85.241C90.5063 87.0681 89.2054 88.9668 88.5049 90.9372C87.8044 92.8718 87.4375 95.2363 87.4041 98.0307ZM72.0434 114.475C72.0434 112.074 72.844 110.05 74.4451 108.402C76.0796 106.754 78.1977 105.93 80.7995 105.93C83.4013 105.93 85.5028 106.754 87.1039 108.402C88.705 110.05 89.5056 112.074 89.5056 114.475C89.5056 116.911 88.705 118.953 87.1039 120.601C85.5028 122.213 83.4013 123.019 80.7995 123.019C78.1977 123.019 76.0796 122.213 74.4451 120.601C72.844 118.953 72.0434 116.911 72.0434 114.475Z" fill="#D7D7D7"/>
</svg>
