<svg width="14" height="13" viewBox="0 0 14 13" fill="none" xmlns="http://www.w3.org/2000/svg">
<path d="M11 7.26727V9.77321C11 10.3945 10.7799 10.9257 10.3398 11.3668C9.89974 11.808 9.36979 12.0286 8.75 12.0286H2.25C1.63021 12.0286 1.10026 11.808 0.660156 11.3668C0.220052 10.9257 0 10.3945 0 9.77321V3.25776C0 2.63649 0.220052 2.10528 0.660156 1.66413C1.10026 1.22298 1.63021 1.00241 2.25 1.00241H7.75C7.82292 1.00241 7.88281 1.0259 7.92969 1.07289C7.97656 1.11987 8 1.17991 8 1.253V1.75419C8 1.82728 7.97656 1.88732 7.92969 1.93431C7.88281 1.98129 7.82292 2.00479 7.75 2.00479H2.25C1.90625 2.00479 1.61198 2.12747 1.36719 2.37285C1.1224 2.61822 1 2.91319 1 3.25776V9.77321C1 10.1178 1.1224 10.4128 1.36719 10.6581C1.61198 10.9035 1.90625 11.0262 2.25 11.0262H8.75C9.09375 11.0262 9.38802 10.9035 9.63281 10.6581C9.8776 10.4128 10 10.1178 10 9.77321V7.26727C10 7.19418 10.0234 7.13414 10.0703 7.08715C10.1172 7.04017 10.1771 7.01667 10.25 7.01667H10.75C10.8229 7.01667 10.8828 7.04017 10.9297 7.08715C10.9766 7.13414 11 7.19418 11 7.26727ZM14 0.501219V4.51073C14 4.64647 13.9505 4.76394 13.8516 4.86313C13.7526 4.96232 13.6354 5.01192 13.5 5.01192C13.3646 5.01192 13.2474 4.96232 13.1484 4.86313L11.7734 3.48486L6.67969 8.59072C6.6276 8.64293 6.56771 8.66903 6.5 8.66903C6.43229 8.66903 6.3724 8.64293 6.32031 8.59072L5.42969 7.69798C5.3776 7.64577 5.35156 7.58573 5.35156 7.51786C5.35156 7.44999 5.3776 7.38996 5.42969 7.33775L10.5234 2.23189L9.14844 0.853618C9.04948 0.754424 9 0.636958 9 0.501219C9 0.36548 9.04948 0.248014 9.14844 0.148821C9.2474 0.0496273 9.36458 3.05176e-05 9.5 3.05176e-05H13.5C13.6354 3.05176e-05 13.7526 0.0496273 13.8516 0.148821C13.9505 0.248014 14 0.36548 14 0.501219Z" fill="#7C68EE"/>
</svg>
