<svg width="70" height="70" viewBox="0 0 70 70" fill="none" xmlns="http://www.w3.org/2000/svg">
<g opacity="0.12">
<path d="M34.8159 46.333C29.3151 46.333 24.7265 42.431 23.6372 37.2465H5.33746C6.63097 52.3224 19.2529 64.1513 34.6253 64.1513C49.9977 64.1513 62.6332 52.3224 63.9131 37.2465H45.9946C44.9053 42.4446 40.3167 46.333 34.8159 46.333Z" fill="white"/>
<path d="M41.3516 63.3872C53.5514 60.5221 62.8238 50.0576 63.9131 37.2465H56.6967C55.975 48.8706 49.8887 58.7212 41.3516 63.3872Z" fill="#DFDFDF"/>
<path d="M41.5558 34.8861C41.5422 34.8861 41.5422 34.8861 41.5558 34.8861C41.5422 34.0538 41.3924 33.2625 41.1201 32.5258C40.167 29.9608 37.7025 28.1462 34.8159 28.1462C31.9293 28.1462 29.4649 29.9745 28.5118 32.5258C28.2394 33.2625 28.0897 34.0538 28.0897 34.8861H28.1033C28.1033 35.7183 28.2531 36.5096 28.5254 37.2464C29.4785 39.8114 31.943 41.6259 34.8295 41.6259C37.7161 41.6259 40.1806 39.7977 41.1337 37.2464C41.406 36.5233 41.5558 35.7183 41.5558 34.8861Z" fill="white"/>
<path d="M34.8295 23.4529C40.3304 23.4529 44.9189 27.3549 46.0082 32.5394H64.308C63.0145 17.4498 50.3925 5.62097 35.0065 5.62097C19.6206 5.62097 7.01223 17.4498 5.71872 32.5258H23.6509C24.7401 27.3413 29.3287 23.4529 34.8295 23.4529Z" fill="#FF1C1C"/>
<path d="M56.6967 32.5257H64.2944C63.1779 19.4963 53.5923 8.88171 41.0793 6.24854C49.7662 10.8464 55.9615 20.7924 56.6967 32.5257Z" fill="#DF1818"/>
<path d="M35.0065 5.62109C50.3925 5.62109 63.0144 17.4499 64.2943 32.5259H45.9945C44.9053 27.3414 40.3167 23.4394 34.8159 23.4394C29.3151 23.4394 24.7265 27.3414 23.6372 32.5259H5.71868C7.01219 17.4499 19.6341 5.62109 35.0065 5.62109ZM41.12 32.5259C41.3924 33.2626 41.5421 34.054 41.5421 34.8862H41.5558C41.5558 35.7185 41.406 36.5098 41.1337 37.2465C40.1806 39.8115 37.7161 41.6261 34.8295 41.6261C31.9429 41.6261 29.4784 39.7978 28.5253 37.2465C28.253 36.5098 28.1032 35.7185 28.1032 34.8862H28.0896C28.0896 34.054 28.2394 33.2626 28.5117 32.5259C29.4648 29.9609 31.9293 28.1464 34.8159 28.1464C37.7025 28.1464 40.1669 29.9746 41.12 32.5259ZM34.6253 64.165C19.2393 64.165 6.61733 52.3361 5.33744 37.2602H23.6372C24.7265 42.4447 29.3151 46.3467 34.8159 46.3467C40.3167 46.3467 44.9053 42.4447 45.9945 37.2602H63.9267C62.6332 52.3225 50.0112 64.165 34.6253 64.165ZM34.8159 0C15.5902 0 0 15.6217 0 34.8862C0 54.1507 15.5902 69.7724 34.8159 69.7724C54.0415 69.7724 69.6454 54.1644 69.6454 34.8862C69.6454 15.6081 54.0552 0 34.8159 0Z" fill="black"/>
</g>
</svg>
