<svg width="22" height="23" viewBox="0 0 22 23" fill="none" xmlns="http://www.w3.org/2000/svg">
<path d="M11.0581 1.77562C15.9183 1.77562 19.9054 5.51219 20.3097 10.2745H14.529C14.1849 8.63677 12.7355 7.40417 10.9978 7.40417C9.26021 7.40417 7.81075 8.63677 7.46667 10.2745H1.80645C2.21505 5.51219 6.20215 1.77562 11.0581 1.77562ZM12.9892 10.2745C13.0753 10.5072 13.1226 10.7572 13.1226 11.0201H13.1269C13.1269 11.283 13.0796 11.5329 12.9935 11.7657C12.6925 12.5759 11.914 13.1491 11.0022 13.1491C10.0903 13.1491 9.31183 12.5716 9.01075 11.7657C8.92473 11.5329 8.87742 11.283 8.87742 11.0201H8.87312C8.87312 10.7572 8.92043 10.5072 9.00645 10.2745C9.30753 9.46424 10.086 8.89104 10.9978 8.89104C11.9097 8.89104 12.6882 9.46855 12.9892 10.2745ZM10.9376 20.2688C6.07742 20.2688 2.09032 16.5323 1.68602 11.77H7.46667C7.81075 13.4077 9.26021 14.6403 10.9978 14.6403C12.7355 14.6403 14.1849 13.4077 14.529 11.77H20.1935C19.7849 16.5279 15.7978 20.2688 10.9376 20.2688ZM10.9978 0C4.92473 0 0 4.93468 0 11.0201C0 17.1054 4.92473 22.0401 10.9978 22.0401C17.071 22.0401 22 17.1098 22 11.0201C22 4.93037 17.0753 0 10.9978 0Z" fill="#292B29"/>
</svg>
