<svg width="20" height="20" viewBox="0 0 20 20" fill="none" xmlns="http://www.w3.org/2000/svg">
<path d="M14.1743 6.45087H13.1274C12.8997 6.45087 12.6832 6.56024 12.5493 6.74774L9.04036 11.6138L7.45107 9.40846C7.31714 9.22319 7.10286 9.11158 6.87295 9.11158H5.82607C5.68098 9.11158 5.59616 9.27676 5.68098 9.39506L8.46223 13.2522C8.52794 13.3439 8.61455 13.4186 8.7149 13.4702C8.81524 13.5217 8.92643 13.5486 9.03924 13.5486C9.15205 13.5486 9.26324 13.5217 9.36359 13.4702C9.46393 13.4186 9.55055 13.3439 9.61625 13.2522L14.3171 6.73435C14.4042 6.61605 14.3194 6.45087 14.1743 6.45087Z" fill="#009D38"/>
<path d="M10 0C4.47768 0 0 4.47768 0 10C0 15.5223 4.47768 20 10 20C15.5223 20 20 15.5223 20 10C20 4.47768 15.5223 0 10 0ZM10 18.3036C5.41518 18.3036 1.69643 14.5848 1.69643 10C1.69643 5.41518 5.41518 1.69643 10 1.69643C14.5848 1.69643 18.3036 5.41518 18.3036 10C18.3036 14.5848 14.5848 18.3036 10 18.3036Z" fill="#009D38"/>
</svg>
